<svg xmlns="http://www.w3.org/2000/svg" width="520" height="340" viewBox="0 0 520 340" role="img" aria-label="Cartes Banque Populaire">
  <defs>
    <linearGradient id="bg2" x1="0" y1="0" x2="1" y2="1">
      <stop offset="0" stop-color="#08142d"/>
      <stop offset="1" stop-color="#162b57"/>
    </linearGradient>
    <linearGradient id="cardBlue" x1="0" y1="0" x2="1" y2="1">
      <stop offset="0" stop-color="#2f6fff"/>
      <stop offset="1" stop-color="#1a3fb8"/>
    </linearGradient>
    <linearGradient id="cardTeal" x1="0" y1="0" x2="1" y2="1">
      <stop offset="0" stop-color="#2af1ff"/>
      <stop offset="1" stop-color="#1d86d3"/>
    </linearGradient>
  </defs>
  <rect width="520" height="340" rx="26" fill="url(#bg2)"/>
  <g opacity="0.2">
    <circle cx="90" cy="90" r="60" fill="#1cb3ff"/>
    <circle cx="430" cy="70" r="80" fill="#4d6aff"/>
  </g>
  <g transform="rotate(-8 260 170)">
    <rect x="150" y="60" width="240" height="150" rx="20" fill="url(#cardBlue)" stroke="#89b9ff" stroke-width="2"/>
    <rect x="190" y="130" width="160" height="10" rx="5" fill="#cfe5ff"/>
    <rect x="190" y="150" width="110" height="10" rx="5" fill="#9cc6ff"/>
    <circle cx="360" cy="120" r="26" fill="#0e1d44"/>
    <path d="M350 112h20v16h-20z" fill="#2af1ff" opacity="0.6"/>
  </g>
  <g transform="rotate(12 260 170)">
    <rect x="120" y="150" width="240" height="150" rx="22" fill="url(#cardTeal)" stroke="#8cefff" stroke-width="2"/>
    <rect x="160" y="220" width="150" height="12" rx="6" fill="#0c273a" opacity="0.8"/>
    <rect x="160" y="242" width="120" height="12" rx="6" fill="#0c273a" opacity="0.6"/>
    <circle cx="330" cy="200" r="22" fill="#08243f"/>
    <path d="M318 192h24v16h-24z" fill="#173b70"/>
  </g>
  <text x="44" y="280" font-family="Inter, sans-serif" font-size="18" fill="#cce4ff" letter-spacing="0.18em">GAMMES VISA</text>
  <text x="44" y="305" font-family="Inter, sans-serif" font-size="14" fill="#8eb4ff">
    Classic 路 Premier 路 Platinum 路 Cristal 路 SwatchPAY!
  </text>
</svg>
