<svg xmlns="http://www.w3.org/2000/svg" width="1600" height="1200" viewBox="0 0 1600 1200">
  <defs>
    <linearGradient id="night" x1="0" y1="0" x2="1" y2="1">
      <stop offset="0" stop-color="#030711"/>
      <stop offset="0.5" stop-color="#101b3b"/>
      <stop offset="1" stop-color="#140f33"/>
    </linearGradient>
    <linearGradient id="duo" x1="0" y1="0" x2="0" y2="1">
      <stop offset="0" stop-color="#3b5bff"/>
      <stop offset="1" stop-color="#19b2ff"/>
    </linearGradient>
    <linearGradient id="finance" x1="0" y1="0" x2="1" y2="1">
      <stop offset="0" stop-color="rgba(53,214,162,0.9)"/>
      <stop offset="1" stop-color="rgba(59,91,255,0.4)"/>
    </linearGradient>
    <linearGradient id="duoGlass" x1="0" y1="0" x2="0.1" y2="1">
      <stop offset="0" stop-color="#9fd4ff" stop-opacity="0.8"/>
      <stop offset="0.5" stop-color="#3b5bff" stop-opacity="0.65"/>
      <stop offset="1" stop-color="#0c1633" stop-opacity="0.9"/>
    </linearGradient>
    <radialGradient id="pulse" cx="0.7" cy="0.2" r="0.5">
      <stop offset="0" stop-color="#6ff3ff" stop-opacity="0.65"/>
      <stop offset="1" stop-color="transparent"/>
    </radialGradient>
  </defs>
  <rect width="1600" height="1200" fill="url(#night)"/>
  <circle cx="1200" cy="200" r="380" fill="url(#pulse)" opacity="0.9"/>
  <g id="bpce-duo" opacity="0.95">
    <path d="M720 1150 L870 160 Q940 120 1020 180 L880 1150 Z" fill="url(#duoGlass)"/>
    <path d="M860 1150 L1010 220 Q1090 190 1180 260 L1030 1150 Z" fill="url(#duoGlass)" opacity="0.9"/>
    <path d="M640 1150 L780 320 Q840 300 920 360 L780 1150 Z" fill="url(#duo)" opacity="0.5"/>
    <path d="M980 1150 L1120 340 Q1220 380 1280 520 L1150 1150 Z" fill="#15204b" opacity="0.6"/>
    <g stroke="rgba(255,255,255,0.15)" stroke-width="2">
      <path d="M760 340 L930 360" />
      <path d="M740 420 L910 440" />
      <path d="M720 500 L900 520" />
      <path d="M700 580 L880 600" />
      <path d="M860 360 L1060 380" />
      <path d="M840 460 L1040 480" />
      <path d="M820 560 L1020 580" />
      <path d="M800 660 L1000 680" />
      <path d="M900 420 L1160 440" />
      <path d="M880 520 L1140 540" />
      <path d="M860 620 L1120 640" />
      <path d="M840 720 L1100 740" />
    </g>
    <g fill="rgba(255,255,255,0.25)">
      <rect x="930" y="240" width="6" height="160"/>
      <rect x="970" y="260" width="6" height="160"/>
      <rect x="1010" y="280" width="6" height="180"/>
      <rect x="1050" y="300" width="6" height="200"/>
    </g>
    <path d="M1070 200 L1076 150 L1086 204 Z" fill="#7fd8ff" opacity="0.8"/>
  </g>
  <g stroke="url(#finance)" stroke-width="2" stroke-linecap="round" opacity="0.7">
    <path d="M200 960 C260 900 340 880 420 780 C500 680 560 640 640 620" fill="none"/>
    <path d="M300 1040 C420 900 520 840 640 780" fill="none"/>
    <path d="M220 700 L320 700 L380 640 L450 640 L520 540 L620 520" fill="none"/>
    <circle cx="200" cy="960" r="6" fill="#35d6a2"/>
    <circle cx="420" cy="780" r="6" fill="#35d6a2"/>
    <circle cx="640" cy="620" r="6" fill="#35d6a2"/>
    <circle cx="300" cy="1040" r="6" fill="#35d6a2"/>
    <circle cx="640" cy="780" r="6" fill="#35d6a2"/>
    <circle cx="520" cy="540" r="6" fill="#35d6a2"/>
  </g>
  <g fill="#ffffff" opacity="0.08">
    <rect x="80" y="80" width="200" height="6"/>
    <rect x="120" y="120" width="320" height="6"/>
    <rect x="160" y="160" width="400" height="6"/>
    <rect x="80" y="200" width="280" height="6"/>
    <rect x="120" y="240" width="220" height="6"/>
  </g>
  <g opacity="0.5">
    <circle cx="1350" cy="640" r="110" fill="none" stroke="#3b5bff" stroke-width="1.5" stroke-dasharray="6 12"/>
    <path d="M1260 640 Q1350 510 1440 640 Q1350 770 1260 640Z" fill="none" stroke="#35d6a2" stroke-width="2" stroke-dasharray="10 12"/>
    <circle cx="1350" cy="640" r="12" fill="#35d6a2"/>
  </g>
  <g opacity="0.2">
    <rect x="180" y="880" width="80" height="220" fill="#35d6a2"/>
    <rect x="280" y="820" width="80" height="280" fill="#3b5bff"/>
    <rect x="380" y="760" width="80" height="340" fill="#19b2ff"/>
    <rect x="480" y="700" width="80" height="400" fill="#35d6a2"/>
  </g>
</svg>
