<svg xmlns="http://www.w3.org/2000/svg" width="520" height="340" viewBox="0 0 520 340" role="img" aria-label="Banque Populaire Rives de Paris - Siège stylisé">
  <defs>
    <linearGradient id="bg" x1="0" y1="0" x2="1" y2="1">
      <stop offset="0" stop-color="#0b1c3f"/>
      <stop offset="1" stop-color="#10285e"/>
    </linearGradient>
    <linearGradient id="glass" x1="0" y1="0" x2="0" y2="1">
      <stop offset="0" stop-color="#7fc2ff" stop-opacity="0.95"/>
      <stop offset="1" stop-color="#1c3c7a" stop-opacity="0.8"/>
    </linearGradient>
  </defs>
  <rect width="520" height="340" rx="26" fill="url(#bg)"/>
  <g opacity="0.25">
    <circle cx="420" cy="80" r="110" fill="#1c67ff"/>
    <circle cx="120" cy="60" r="70" fill="#22b5ff"/>
  </g>
  <g stroke="#8fd6ff" stroke-width="2" opacity="0.4">
    <path d="M50 260L470 260"/>
    <path d="M50 290L470 290"/>
  </g>
  <g transform="translate(70 80)" fill="url(#glass)" stroke="#94c9ff" stroke-width="1.4">
    <rect x="0" y="40" width="80" height="180" rx="8"/>
    <rect x="90" y="10" width="90" height="210" rx="12"/>
    <rect x="190" y="0" width="90" height="220" rx="14"/>
    <rect x="300" y="30" width="80" height="190" rx="10"/>
    <rect x="390" y="60" width="60" height="160" rx="10"/>
  </g>
  <g fill="#c8e7ff">
    <rect x="90" y="140" width="70" height="10" rx="5"/>
    <rect x="90" y="160" width="60" height="10" rx="5"/>
    <rect x="205" y="120" width="60" height="12" rx="6"/>
    <rect x="205" y="142" width="70" height="10" rx="5"/>
    <rect x="205" y="164" width="50" height="10" rx="5"/>
    <rect x="310" y="150" width="50" height="10" rx="5"/>
    <rect x="310" y="170" width="40" height="10" rx="5"/>
    <rect x="395" y="190" width="35" height="8" rx="4"/>
    <rect x="395" y="208" width="45" height="8" rx="4"/>
  </g>
  <text x="40" y="70" font-family="Inter, sans-serif" font-size="20" fill="#cfe8ff" letter-spacing="0.24em">BANQUE POPULAIRE</text>
  <text x="40" y="100" font-family="Inter, sans-serif" font-size="14" fill="#85b5ff">Rives de Paris · Offre & Tarification</text>
</svg>
